<svg xmlns="http://www.w3.org/2000/svg" version="1.1" xmlns:xlink="http://www.w3.org/1999/xlink" xmlns:svgjs="http://svgjs.dev/svgjs" width="1500" height="1500" viewBox="0 0 1500 1500"><rect width="1500" height="1500" fill="#0080ff"></rect><g transform="matrix(0.6666666666666666,0,0,0.6666666666666666,249.13507844567255,254.4064516129032)"><svg viewBox="0 0 251 248" data-background-color="#0080ff" preserveAspectRatio="xMidYMid meet" height="1482" width="1500" xmlns="http://www.w3.org/2000/svg" xmlns:xlink="http://www.w3.org/1999/xlink"><g id="tight-bounds" transform="matrix(1,0,0,1,0.21709531013618744,0.4000000000000057)"><svg viewBox="0 0 250.56580937972763 247.2" height="247.2" width="250.56580937972763"><g><svg viewBox="0 0 250.56580937972763 247.2" height="247.2" width="250.56580937972763"><g><svg viewBox="0 0 250.56580937972763 247.2" height="247.2" width="250.56580937972763"><g id="textblocktransform"><svg viewBox="0 0 250.56580937972763 247.2" height="247.2" width="250.56580937972763" id="textblock"><g><svg viewBox="0 0 250.56580937972763 247.2" height="247.2" width="250.56580937972763"><g transform="matrix(1,0,0,1,0,0)"><svg width="250.56580937972763" viewBox="0.1 -33.05 33.5 33.05" height="247.2" data-palette-color="#010c80"><path d="M31.2 0L19.25 0 19.4-1.05 19.9-1.2Q21.65-1.85 20.7-3.4L20.7-3.4 12.3-17.25 26-29.65Q26.7-30.3 26.63-30.93 26.55-31.55 25.7-31.85L25.7-31.85 25.25-32 25.45-33.05 33.6-33.05 33.4-32 32.65-31.8Q31.1-31.35 29.98-30.75 28.85-30.15 27.65-29.05L27.65-29.05 17.45-19.85 27.55-3.85Q28.8-1.85 30.9-1.2L30.9-1.2 31.35-1.05 31.2 0ZM11.7 0L0.1 0 0.3-1.05 1.05-1.3Q2.85-1.9 3.2-3.75L3.2-3.75 5.8-17.55Q6.35-20.25 6.88-23.35 7.4-26.45 7.9-29.35L7.9-29.35Q8.2-31.2 6.4-31.8L6.4-31.8 5.85-32 6.05-33.05 17.9-33.05 17.7-32 16.75-31.75Q14.8-31.15 14.45-29.25L14.45-29.25 11.5-13.45Q11.15-11.4 10.65-8.72 10.15-6.05 9.75-3.7L9.75-3.7Q9.45-1.85 11.25-1.25L11.25-1.25 11.95-1.05 11.7 0Z" opacity="1" transform="matrix(1,0,0,1,0,0)" fill="#010c80" class="wordmark-text-0" data-fill-palette-color="primary" id="text-0"></path></svg></g></svg></g></svg></g></svg></g><g></g></svg></g><defs></defs></svg><rect width="250.56580937972763" height="247.2" fill="none" stroke="none" visibility="hidden"></rect></g></svg></g></svg>